<?xml version="1.0" encoding="UTF-8" standalone="no"?>
<!DOCTYPE svg PUBLIC "-//W3C//DTD SVG 1.1//EN" "http://www.w3.org/Graphics/SVG/1.1/DTD/svg11.dtd">
<svg version="1.1" xmlns="http://www.w3.org/2000/svg" xmlns:xlink="http://www.w3.org/1999/xlink" preserveAspectRatio="xMidYMid meet" viewBox="0 0 640 640" width="100" height="100"><defs><path d="M327.54 0.14L329.47 0.28L331.55 0.41L333.62 0.69L335.83 0.97L338.05 1.11L340.4 1.52L345.1 2.07L347.73 2.49L350.22 2.9L352.98 3.32L355.75 3.87L358.65 4.29L361.56 4.84L364.6 5.39L367.78 5.95L370.96 6.64L374.28 7.19L377.74 7.88L381.33 8.57L385.07 9.4L388.8 10.1L396.82 11.76L400.97 12.59L405.26 13.42L409.68 14.38L414.25 15.21L418.81 16.18L423.51 17.15L438.04 20.05L443.01 20.88L457.95 23.79L463.07 24.76L487.96 28.91L492.8 29.6L497.64 30.43L502.48 30.98L507.18 31.67L516.31 32.78L520.74 33.19L525.02 33.61L533.32 34.16L537.19 34.44L541.07 34.44L544.66 34.58L546.32 34.58L546.6 34.44L549.36 34.44L549.78 34.3L551.44 34.3L551.85 34.16L553.24 34.16L553.65 34.02L554.62 34.02L555.17 33.88L556.14 33.88L556.69 33.75L557.25 33.75L627.5 21.85L627.09 93.63L626.12 130.42L623.35 165.69L618.93 199.71L613.12 232.21L605.93 263.33L597.49 293.2L587.95 321.55L577.44 348.66L566.1 374.38L553.93 398.86L541.2 421.96L528.07 443.81L514.37 464.42L500.54 483.64L486.58 501.62L472.61 518.36L458.78 533.99L445.23 548.23L431.95 561.37L419.23 573.26L407.06 584.05L395.58 593.59L385.07 601.89L375.53 609.22L366.95 615.31L359.76 620.29L353.81 624.3L349.25 627.06L346.48 628.72L345.24 629.41L320.07 641.17L294.76 629.41L293.65 628.86L290.75 627.06L286.33 624.3L280.38 620.42L273.05 615.45L264.61 609.22L254.93 602.03L244.42 593.59L232.94 584.05L220.77 573.4L208.05 561.51L194.77 548.37L181.22 534.12L167.39 518.5L153.42 501.76L139.46 483.78L125.63 464.56L111.93 443.95L98.8 422.1L86.07 399L73.9 374.66L62.56 348.8L52.05 321.69L42.51 293.34L34.07 263.47L26.88 232.35L21.07 199.71L16.65 165.82L13.88 130.42L12.78 93.63L12.5 21.85L82.75 33.75L83.17 33.75L83.45 33.88L84.28 33.88L84.69 34.02L85.38 34.02L85.8 34.16L87.04 34.16L87.46 34.3L89.12 34.3L89.53 34.44L98.8 34.44L106.26 34.16L114.29 33.61L118.43 33.19L122.72 32.78L127.15 32.36L131.57 31.81L136 31.12L140.7 30.56L145.26 29.87L149.97 29.18L154.81 28.35L159.51 27.66L164.35 26.83L169.33 26L174.17 25.03L179.01 24.2L183.99 23.23L188.83 22.4L193.81 21.44L208.33 18.53L213.03 17.56L217.87 16.6L222.57 15.77L231.7 13.83L240.27 12.17L248.29 10.51L252.17 9.68L255.9 8.99L263.09 7.61L266.55 6.92L269.87 6.22L276.23 5.12L282.31 4.01L285.22 3.6L287.98 3.04L290.75 2.63L293.38 2.21L295.87 1.94L298.36 1.52L300.85 1.24L305.55 0.69L307.76 0.55L309.97 0.28L312.05 0.14L314.12 0.14L316.06 0L323.66 0L325.6 0.14L327.54 0.14ZM307.76 61.27L300.02 62.37L291.3 63.76L281.76 65.56L271.39 67.49L260.46 69.7L248.85 72.06L236.82 74.55L224.37 77.03L211.78 79.52L198.92 82.01L172.92 86.72L160.06 88.79L147.48 90.59L135.17 92.25L123.14 93.49L111.8 94.32L100.87 94.88L90.78 94.88L81.37 94.46L72.94 93.35L74.32 134.98L78.19 174.68L84.28 212.43L92.3 248.11L102.12 281.86L113.46 313.67L126.04 343.54L139.73 371.62L154.25 397.62L169.33 421.96L184.95 444.23L200.58 464.83L216.21 483.51L231.56 500.52L246.36 515.59L260.46 529.01L273.74 540.62L285.63 550.44L296.28 558.6L305.13 565.1L312.32 569.94L317.3 573.13L319.93 574.65L322.7 573.13L327.68 569.94L334.87 565.1L343.72 558.6L354.37 550.44L366.26 540.62L379.4 529.01L393.5 515.59L408.44 500.52L423.79 483.51L439.42 464.83L455.05 444.23L470.67 421.96L485.75 397.62L500.27 371.62L513.96 343.54L526.54 313.67L537.75 281.86L547.57 248.11L555.59 212.43L561.67 174.68L565.68 134.98L567.06 93.35L558.63 94.46L549.22 94.88L538.99 94.88L528.07 94.46L516.59 93.49L504.56 92.25L492.11 90.59L479.39 88.79L466.39 86.72L453.39 84.36L440.25 82.01L427.39 79.52L414.66 77.03L402.08 74.55L390.05 72.06L378.57 69.7L367.5 67.49L357.27 65.56L347.87 63.76L339.29 62.37L331.69 61.27L325.32 60.58L319.93 60.44L314.4 60.58L307.76 61.27Z" id="aaDKmVKP2n"></path><path d="M327.54 0.14L329.47 0.28L331.55 0.41L333.62 0.69L335.83 0.97L338.05 1.11L340.4 1.52L345.1 2.07L347.73 2.49L350.22 2.9L352.98 3.32L355.75 3.87L358.65 4.29L361.56 4.84L364.6 5.39L367.78 5.95L370.96 6.64L374.28 7.19L377.74 7.88L381.33 8.57L385.07 9.4L388.8 10.1L396.82 11.76L400.97 12.59L405.26 13.42L409.68 14.38L414.25 15.21L418.81 16.18L423.51 17.15L438.04 20.05L443.01 20.88L457.95 23.79L463.07 24.76L487.96 28.91L492.8 29.6L497.64 30.43L502.48 30.98L507.18 31.67L516.31 32.78L520.74 33.19L525.02 33.61L533.32 34.16L537.19 34.44L541.07 34.44L544.66 34.58L546.32 34.58L546.6 34.44L549.36 34.44L549.78 34.3L551.44 34.3L551.85 34.16L553.24 34.16L553.65 34.02L554.62 34.02L555.17 33.88L556.14 33.88L556.69 33.75L557.25 33.75L627.5 21.85L627.09 93.63L626.12 130.42L623.35 165.69L618.93 199.71L613.12 232.21L605.93 263.33L597.49 293.2L587.95 321.55L577.44 348.66L566.1 374.38L553.93 398.86L541.2 421.96L528.07 443.81L514.37 464.42L500.54 483.64L486.58 501.62L472.61 518.36L458.78 533.99L445.23 548.23L431.95 561.37L419.23 573.26L407.06 584.05L395.58 593.59L385.07 601.89L375.53 609.22L366.95 615.31L359.76 620.29L353.81 624.3L349.25 627.06L346.48 628.72L345.24 629.41L320.07 641.17L294.76 629.41L293.65 628.86L290.75 627.06L286.33 624.3L280.38 620.42L273.05 615.45L264.61 609.22L254.93 602.03L244.42 593.59L232.94 584.05L220.77 573.4L208.05 561.51L194.77 548.37L181.22 534.12L167.39 518.5L153.42 501.76L139.46 483.78L125.63 464.56L111.93 443.95L98.8 422.1L86.07 399L73.9 374.66L62.56 348.8L52.05 321.69L42.51 293.34L34.07 263.47L26.88 232.35L21.07 199.71L16.65 165.82L13.88 130.42L12.78 93.63L12.5 21.85L82.75 33.75L83.17 33.75L83.45 33.88L84.28 33.88L84.69 34.02L85.38 34.02L85.8 34.16L87.04 34.16L87.46 34.3L89.12 34.3L89.53 34.44L98.8 34.44L106.26 34.16L114.29 33.61L118.43 33.19L122.72 32.78L127.15 32.36L131.57 31.81L136 31.12L140.7 30.56L145.26 29.87L149.97 29.18L154.81 28.35L159.51 27.66L164.35 26.83L169.33 26L174.17 25.03L179.01 24.2L183.99 23.23L188.83 22.4L193.81 21.44L208.33 18.53L213.03 17.56L217.87 16.6L222.57 15.77L231.7 13.83L240.27 12.17L248.29 10.51L252.17 9.68L255.9 8.99L263.09 7.61L266.55 6.92L269.87 6.22L276.23 5.12L282.31 4.01L285.22 3.6L287.98 3.04L290.75 2.63L293.38 2.21L295.87 1.94L298.36 1.52L300.85 1.24L305.55 0.69L307.76 0.55L309.97 0.28L312.05 0.14L314.12 0.14L316.06 0L323.66 0L325.6 0.14L327.54 0.14ZM307.76 61.27L300.02 62.37L291.3 63.76L281.76 65.56L271.39 67.49L260.46 69.7L248.85 72.06L236.82 74.55L224.37 77.03L211.78 79.52L198.92 82.01L172.92 86.72L160.06 88.79L147.48 90.59L135.17 92.25L123.14 93.49L111.8 94.32L100.87 94.88L90.78 94.88L81.37 94.46L72.94 93.35L74.32 134.98L78.19 174.68L84.28 212.43L92.3 248.11L102.12 281.86L113.46 313.67L126.04 343.54L139.73 371.62L154.25 397.62L169.33 421.96L184.95 444.23L200.58 464.83L216.21 483.51L231.56 500.52L246.36 515.59L260.46 529.01L273.74 540.62L285.63 550.44L296.28 558.6L305.13 565.1L312.32 569.94L317.3 573.13L319.93 574.65L322.7 573.13L327.68 569.94L334.87 565.1L343.72 558.6L354.37 550.44L366.26 540.62L379.4 529.01L393.5 515.59L408.44 500.52L423.79 483.51L439.42 464.83L455.05 444.23L470.67 421.96L485.75 397.62L500.27 371.62L513.96 343.54L526.54 313.67L537.75 281.86L547.57 248.11L555.59 212.43L561.67 174.68L565.68 134.98L567.06 93.35L558.63 94.46L549.22 94.88L538.99 94.88L528.07 94.46L516.59 93.49L504.56 92.25L492.11 90.59L479.39 88.79L466.39 86.72L453.39 84.36L440.25 82.01L427.39 79.52L414.66 77.03L402.08 74.55L390.05 72.06L378.57 69.7L367.5 67.49L357.27 65.56L347.87 63.76L339.29 62.37L331.69 61.27L325.32 60.58L319.93 60.44L314.4 60.58L307.76 61.27Z" id="bUdsosw7E"></path><path d="M118.02 134.02C119.26 399.97 308.04 521.68 319.79 527.62C319.79 527.21 319.79 525 319.79 524.72C305.27 462.62 296.7 388.91 296.7 309.66C296.7 235.67 304.17 166.65 317.03 107.32C282.04 109.12 166.84 142.17 118.02 134.02Z" id="bA9dEOTQB"></path><path d="M118.02 134.02C119.26 399.97 308.04 521.68 319.79 527.62C319.79 527.21 319.79 525 319.79 524.72C305.27 462.62 296.7 388.91 296.7 309.66C296.7 235.67 304.17 166.65 317.03 107.32C282.04 109.12 166.84 142.17 118.02 134.02Z" id="b148jHbrv6"></path></defs><g><g><g><use xlink:href="#aaDKmVKP2n" opacity="1" fill="#000000" fill-opacity="1"></use><g><use xlink:href="#aaDKmVKP2n" opacity="1" fill-opacity="0" stroke="#000000" stroke-width="1" stroke-opacity="0"></use></g></g><g><use xlink:href="#bUdsosw7E" opacity="1" fill="#000000" fill-opacity="0"></use><g><use xlink:href="#bUdsosw7E" opacity="1" fill-opacity="0" stroke="#000000" stroke-width="1" stroke-opacity="0"></use></g></g><g><use xlink:href="#bA9dEOTQB" opacity="1" fill="#000000" fill-opacity="1"></use><g><use xlink:href="#bA9dEOTQB" opacity="1" fill-opacity="0" stroke="#000000" stroke-width="1" stroke-opacity="0"></use></g></g><g><use xlink:href="#b148jHbrv6" opacity="1" fill="#000000" fill-opacity="0"></use><g><use xlink:href="#b148jHbrv6" opacity="1" fill-opacity="0" stroke="#000000" stroke-width="1" stroke-opacity="0"></use></g></g></g></g></svg>